<svg xmlns="http://www.w3.org/2000/svg" viewBox="0 0 800 800" role="img" aria-labelledby="t d"><title id="t">Illustration 6 SA</title><desc id="d">Illustration douce et symbolique d'un embryon à 6 semaines d'aménorrhée.</desc><defs><radialGradient id="bg"><stop offset="0" stop-color="#fffaf7"/><stop offset="1" stop-color="#efcbbc"/></radialGradient><radialGradient id="sac"><stop offset="0" stop-color="#fff" stop-opacity=".86"/><stop offset="1" stop-color="#f5c2b0" stop-opacity=".4"/></radialGradient><linearGradient id="emb" x1="0" y1="0" x2="1" y2="1"><stop stop-color="#f0bda9"/><stop offset="1" stop-color="#ad6d5b"/></linearGradient></defs><rect width="800" height="800" fill="url(#bg)"/><circle cx="400" cy="390" r="246" fill="#fff" opacity=".16"/><circle cx="400" cy="390" r="204" fill="url(#sac)" stroke="#fff" stroke-opacity=".7" stroke-width="3"/><path d="M362 325c-54 24-78 92-50 143 22 40 70 58 110 39 36-17 58-56 51-96-8-44-36-79-73-89-13-4-26-3-38 3z" fill="url(#emb)"/><ellipse cx="398" cy="350" rx="19" ry="17" fill="#fff7ef"/><circle cx="422" cy="367" r="4" fill="#8e5a4f"/><path d="M452 420c22 17 34 39 32 65" fill="none" stroke="#ad6d5b" stroke-width="9" stroke-linecap="round"/><path d="M345 419c-18 7-29 18-34 33" fill="none" stroke="#d3907b" stroke-width="7" stroke-linecap="round"/></svg>