<svg xmlns="http://www.w3.org/2000/svg" viewBox="0 0 800 800" role="img" aria-labelledby="t d"><title id="t">Illustration 7 SA</title><desc id="d">Illustration douce et symbolique d'un embryon à 7 semaines d'aménorrhée.</desc><defs><radialGradient id="bg"><stop offset="0" stop-color="#fffaf7"/><stop offset="1" stop-color="#efc5b5"/></radialGradient><radialGradient id="sac"><stop offset="0" stop-color="#fff" stop-opacity=".88"/><stop offset="1" stop-color="#f4bba7" stop-opacity=".42"/></radialGradient><linearGradient id="emb" x1="0" y1="0" x2="1" y2="1"><stop stop-color="#efb7a1"/><stop offset="1" stop-color="#a86454"/></linearGradient></defs><rect width="800" height="800" fill="url(#bg)"/><circle cx="400" cy="390" r="247" fill="#fff" opacity=".15"/><circle cx="400" cy="390" r="205" fill="url(#sac)" stroke="#fff" stroke-opacity=".72" stroke-width="3"/><path d="M356 304c-60 25-89 101-59 159 24 46 80 68 128 46 42-19 68-64 60-111-8-49-41-89-83-99-16-4-32-2-46 5z" fill="url(#emb)"/><ellipse cx="399" cy="331" rx="23" ry="21" fill="#fff7ef"/><circle cx="427" cy="351" r="5" fill="#805149"/><path d="M459 403c27 14 45 34 49 61" fill="none" stroke="#a86454" stroke-width="10" stroke-linecap="round"/><path d="M341 405c-25 7-40 21-48 42" fill="none" stroke="#ce8570" stroke-width="8" stroke-linecap="round"/><path d="M393 459c-4 25-15 42-31 55" fill="none" stroke="#b97060" stroke-width="8" stroke-linecap="round"/></svg>